<?xml version="1.0" encoding="UTF-8" standalone="no"?>
<!-- Created with Inkscape (http://www.inkscape.org/) -->

<svg
   xmlns:dc="http://purl.org/dc/elements/1.1/"
   xmlns:cc="http://creativecommons.org/ns#"
   xmlns:rdf="http://www.w3.org/1999/02/22-rdf-syntax-ns#"
   xmlns:svg="http://www.w3.org/2000/svg"
   xmlns="http://www.w3.org/2000/svg"
   version="1.1"
   width="210mm"
   height="297mm"
   id="svg2">
  <defs
     id="defs4">

	
		
	
		
	
	
		
	
	
	
	
</defs>
  <metadata
     id="metadata7">
    <rdf:RDF>
      <cc:Work
         rdf:about="">
        <dc:format>image/svg+xml</dc:format>
        <dc:type
           rdf:resource="http://purl.org/dc/dcmitype/StillImage" />
        <dc:title></dc:title>
      </cc:Work>
    </rdf:RDF>
  </metadata>
  <g
     id="layer1">
    <path
       d="m 1.7639199,45.319957 c 0,6.369 0.578,12.894 1.7329999,19.578 0.721,6.836 1.153,15.499 1.299,25.984 -0.289,1.634 -0.435,3.534 -0.435,5.708 0,1.943 0.541,2.915 1.625,2.915 0.288,0 2.055,-1.827 5.3050002,-5.478 3.102999,-3.649 9.883999,-10.563 20.346999,-20.742 0.939,-0.856 3.319,-3.107 7.144,-6.757 3.681,-3.654 7.794,-8.003 12.34,-13.052 4.617,-5.127 8.694,-10.644 12.23,-16.548 3.247,-5.67 4.942,-11.07 5.087,-16.196 0.288,-12.7409999 -3.68,-19.111 -11.907,-19.111 -1.804,0 -3.428,0.8160001 -4.872,2.4470001 -1.802,1.552 -2.704,3.456 -2.704,5.71 0,3.4959999 0.577,6.9909999 1.73,10.4879999 0.795,3.496 1.262,7.146 1.407,10.953 0,5.438 -0.901,10.294 -2.706,14.566 -1.731,4.271 -4.077,8.351 -7.035,12.236 -2.958,3.495 -6.242,6.913 -9.85,10.252 -3.535,3.342 -7.144,6.679 -10.823,10.024 l 0,0 c -0.723,-7.538 -1.769,-14.957 -3.14,-22.26 -1.441,-7.145 -2.165,-14.448 -2.165,-21.907 0,-6.214 0.65,-11.223 1.949,-15.03 1.227,-3.807 2.562,-6.606 4.004,-8.392 3.537,-3.6499999 5.484,-5.9419999 5.845,-6.8749999 0,-1.009 -0.542,-1.591 -1.625,-1.747 -3.535,0.155 -8.334,4.233 -14.395,12.2329999 -2.8159992,3.809 -5.1599992,8.275 -7.0349992,13.404 -2.234,5.207 -3.3529999,11.072 -3.3529999,17.597 l 0,0 z"
       id="path2883_1_"
       style="fill:none;stroke:#000000;stroke-opacity:1" />
  </g>
</svg>
